<?xml version="1.0" encoding="UTF-8"?>
<svg id="Artwork" xmlns="http://www.w3.org/2000/svg" xmlns:xlink="http://www.w3.org/1999/xlink" viewBox="0 0 890.88 361.22">
  <defs>
    <style>
      .cls-2 {
        clip-path: url(#clippath-1);
      }

      .cls-1, .cls-2, .cls-3 {
        fill: none;
      }

      .cls-4, .cls-5 {
        fill: #666;
      }

      .cls-6 {
        fill: #110b1d;
      }

      .cls-7 {
        fill: #6122b2;
      }

      .cls-3 {
        clip-path: url(#clippath);
      }

      .cls-5 {
        fill-rule: evenodd;
      }
      
    </style>
    <clipPath id="clippath">
      <rect class="cls-1" x="96.7" y="90.45" width="697.49" height="180.32"/>
    </clipPath>
    <clipPath id="clippath-1">
      <rect class="cls-1" x="96.7" y="90.45" width="697.49" height="180.32"/>
    </clipPath>
  </defs>
  <g id="_003_Landscape" data-name="003 Landscape">
    <g class="cls-3">
      <g class="cls-2">
        <path class="cls-6" d="m340.89,137.92c-.22-2.4,1.54-4.52,3.93-4.75,2.4-.22,4.52,1.54,4.75,3.93.03.27.03.54,0,.81v1.07c.51-1.87,1.61-3.51,3.15-4.69,1.71-1.38,3.86-2.1,6.05-2.02,5.94,0,9.6,2.27,10.96,6.81.66-1.94,1.93-3.62,3.61-4.79,1.97-1.39,4.35-2.09,6.76-2.02,8.06,0,12.1,4.98,12.1,13.03v31.24c.22,2.38-1.53,4.49-3.91,4.72-2.38.22-4.49-1.53-4.72-3.91-.03-.27-.03-.54,0-.81v-28.84c0-5.49-1.69-7.79-5.49-7.79-4.83,0-7.21,4.32-7.21,13v23.63c.22,2.38-1.53,4.49-3.91,4.72-2.38.22-4.5-1.53-4.72-3.91-.03-.27-.03-.54,0-.81v-28.84c0-5.49-1.5-7.79-5.49-7.79-4.82,0-7.22,4.71-7.17,14.12v22.51c.22,2.4-1.54,4.52-3.93,4.75s-4.52-1.54-4.75-3.93c-.03-.27-.03-.54,0-.81v-38.64Z"/>
        <path class="cls-6" d="m445.94,167.04c-1.31.03-2.55.63-3.38,1.64-3.37,3.89-8.15,5.86-14.39,5.86-3.78.1-7.43-1.36-10.11-4.03-2.64-2.64-4.3-6.09-4.74-9.8h33.2c2.45.22,4.62-1.59,4.84-4.05.02-.26.02-.52,0-.78.18-6.26-2.17-12.33-6.52-16.84-4.34-4.52-10.41-6.98-16.67-6.76-7.28,0-13.09,2.4-17.39,7.14-8.57,10.35-8.57,25.33,0,35.68,4.31,4.74,10.11,7.07,17.39,7.07,8.49,0,15.34-2.44,20.44-7.36,1.85-1.61,2.04-4.41.43-6.26-.02-.02-.03-.04-.05-.06-.72-.95-1.85-1.5-3.04-1.47Zm-27.68-23.3c2.67-2.52,6.23-3.89,9.9-3.79,3.46-.16,6.82,1.18,9.23,3.66,2.45,2.65,4.17,5.9,4.98,9.42h-29.05c.57-3.56,2.31-6.83,4.94-9.3"/>
        <path class="cls-6" d="m478.06,113.06c2.68,0,4.32,1.97,4.32,4.79v15.39h17.39c2.99,0,4.5,1.26,4.5,3.79s-1.5,3.79-4.5,3.79h-17.39v25.13c0,5.86,3.09,8.49,7.4,8.49,2.32.09,4.62-.46,6.66-1.59l2.77-1.97c.73-.56,1.61-.9,2.52-.98,2.16-.03,3.92,1.7,3.95,3.86,0,.09,0,.18,0,.27,0,1.45-.93,2.85-2.76,4.17-3.98,2.72-8.74,4.08-13.55,3.89-4.74,0-8.53-1.26-11.37-3.7-2.84-2.44-4.26-6.32-4.26-11.63v-25.83h-12.48c-3,0-4.5-1.26-4.5-3.79s1.49-3.79,4.5-3.79h12.48v-15.49c-.2-2.43,1.6-4.57,4.04-4.77.1,0,.19-.01.29-.01Z"/>
        <path class="cls-6" d="m556.37,133.24c-2.39,0-4.08,1.92-4.31,4.96-1.5-1.98-3.53-3.49-5.86-4.36-2.42-1.02-5.02-1.55-7.64-1.55-6.95,0-12.43,2.44-16.42,7.36-4.06,4.95-6.21,11.19-6.05,17.58-.17,6.41,1.93,12.67,5.91,17.68,3.98,4.82,9.51,7.26,16.6,7.26,2.62,0,5.21-.52,7.64-1.5,2.33-.89,4.36-2.42,5.86-4.41.23,3.06,1.87,4.98,4.31,4.98,2.44.13,4.52-1.73,4.66-4.17.01-.21,0-.41,0-.62v-38.45c.2-2.43-1.61-4.57-4.04-4.77-.21-.02-.43-.02-.64,0m-7.83,36.52c-4.48,5.54-12.6,6.4-18.14,1.92-.71-.57-1.35-1.22-1.92-1.92-2.64-3.63-3.97-8.04-3.79-12.52-.19-4.46,1.15-8.86,3.79-12.47,4.41-5.54,12.48-6.45,18.01-2.04.76.6,1.44,1.29,2.04,2.04,2.66,3.6,4,8,3.79,12.47.2,4.48-1.13,8.9-3.79,12.52"/>
        <path class="cls-7" d="m593.04,173.56v-51.86h-10.74c-2.68,0-4.74-1.4-4.74-3.79s2.06-3.79,4.74-3.79h15.04c2.24-.14,4.16,1.55,4.32,3.79v55.7h13.89c2.68,0,4.74,1.41,4.74,3.85s-2.06,3.79-4.74,3.79h-36.46c-2.66,0-4.69-1.4-4.69-3.79s2.02-3.85,4.69-3.85l13.93-.05Z"/>
        <path class="cls-7" d="m665.39,133.24c-2.39,0-4.08,1.92-4.31,4.96-1.5-1.98-3.53-3.49-5.86-4.36-2.4-1.01-4.98-1.54-7.58-1.55-6.95,0-12.43,2.44-16.42,7.36-4.06,4.95-6.21,11.19-6.05,17.58-.17,6.41,1.92,12.67,5.91,17.68,3.98,4.82,9.51,7.26,16.6,7.26,2.62,0,5.21-.52,7.64-1.5,2.33-.89,4.36-2.42,5.86-4.41.23,3.06,1.87,4.98,4.31,4.98,2.44.13,4.52-1.73,4.66-4.17.01-.21,0-.41,0-.62v-38.45c.2-2.43-1.6-4.57-4.04-4.77-.24-.02-.47-.02-.71,0m-7.83,36.52c-4.48,5.54-12.6,6.4-18.14,1.92-.71-.57-1.35-1.22-1.92-1.92-2.64-3.63-3.97-8.04-3.79-12.52-.19-4.46,1.15-8.86,3.79-12.47,4.41-5.54,12.48-6.45,18.01-2.04.76.6,1.44,1.29,2.04,2.04,2.66,3.6,4,8,3.79,12.47.2,4.48-1.13,8.9-3.79,12.52"/>
        <path class="cls-7" d="m685.12,137.92c-.22-2.4,1.54-4.52,3.93-4.75,2.4-.22,4.52,1.54,4.75,3.93.03.27.03.54,0,.81v1.07c.49-1.86,1.58-3.51,3.11-4.69,1.71-1.38,3.86-2.1,6.05-2.02,5.96,0,9.62,2.27,10.98,6.81.65-1.94,1.92-3.62,3.61-4.79,1.97-1.39,4.34-2.1,6.74-2.02,8.07,0,12.1,4.98,12.1,13.03v31.24c.22,2.38-1.53,4.49-3.91,4.72-2.38.22-4.49-1.53-4.72-3.91-.03-.27-.03-.54,0-.81v-28.84c0-5.49-1.69-7.79-5.48-7.79-4.84,0-7.23,4.32-7.23,13v23.63c.22,2.38-1.53,4.49-3.91,4.72-2.38.22-4.49-1.53-4.72-3.91-.03-.27-.03-.54,0-.81v-28.84c0-5.49-1.5-7.79-5.49-7.79-4.83,0-7.21,4.71-7.16,14.12v22.51c.22,2.4-1.54,4.52-3.93,4.75s-4.52-1.54-4.75-3.93c-.03-.27-.03-.54,0-.81l.03-38.64Z"/>
        <path class="cls-7" d="m789.52,133.24c-2.39,0-4.07,1.92-4.31,4.96-1.5-1.98-3.53-3.5-5.86-4.36-2.4-1.01-4.97-1.54-7.58-1.55-6.95,0-12.43,2.44-16.42,7.36-4.06,4.95-6.2,11.19-6.05,17.58-.17,6.41,1.93,12.67,5.91,17.68,3.98,4.82,9.51,7.26,16.6,7.26,2.6-.02,5.17-.53,7.58-1.5,2.33-.89,4.36-2.42,5.86-4.41.24,3.06,1.87,4.98,4.31,4.98,2.44.11,4.51-1.78,4.62-4.21,0-.18,0-.36,0-.53v-38.49c.2-2.43-1.61-4.57-4.05-4.77-.2-.02-.4-.02-.6,0m-7.82,36.52c-4.48,5.54-12.61,6.4-18.16,1.92-.7-.57-1.35-1.21-1.92-1.92-2.63-3.63-3.97-8.04-3.79-12.52-.19-4.46,1.15-8.86,3.79-12.47,4.42-5.54,12.49-6.45,18.04-2.04.75.6,1.44,1.28,2.04,2.04,2.66,3.6,3.99,8,3.79,12.47.2,4.48-1.14,8.9-3.79,12.52"/>
        <path class="cls-5" d="m788.28,252.89c-2.56,3.03-6.27,4.5-10.95,4.5-1.86,0-3.62-.35-5.3-1.04-1.68-.69-2.91-1.64-3.62-2.86v12.55c0,1.73-1.15,3.03-2.83,3.03s-2.83-1.3-2.83-3.03v-37.14c0-1.73,1.15-3.03,2.83-3.03,1.5,0,2.74,1.3,2.83,3.03.8-1.21,2.03-2.08,3.71-2.68,1.68-.61,3.44-.87,5.3-.87,4.68,0,8.3,1.38,10.86,4.24,2.56,2.86,3.89,6.75,3.89,11.77,0,4.67-1.33,8.48-3.89,11.51m-4.06-19.65c-1.59-1.99-3.8-3.03-6.71-3.03s-5.12.95-6.71,3.03c-1.59,1.99-2.3,4.68-2.3,8.14s.8,6.15,2.3,8.14c1.59,1.99,3.8,2.94,6.71,2.94s5.12-.95,6.71-2.94c1.5-1.99,2.3-4.68,2.3-8.14s-.8-6.15-2.3-8.14m-29.15,2.34c-1.06,0-1.94-.61-2.47-1.73-1.15-2.34-3.09-3.55-5.65-3.55-3.18,0-5.56,1.21-7.15,3.55-1.59,2.34-2.39,5.28-2.39,8.74v11.08c0,1.82-1.15,3.12-2.83,3.12s-2.82-1.3-2.82-3.12v-24.58c0-1.82,1.15-3.12,2.82-3.12s2.83,1.3,2.83,3.12v1.38c.8-1.3,2.03-2.51,3.8-3.55,1.77-1.04,3.71-1.56,5.74-1.56,5.3,0,8.92,1.9,10.95,5.8.27.52.36.95.36,1.47,0,1.73-1.59,2.94-3.18,2.94m-35.24,21.03c-1.59,0-2.74-1.21-2.82-3.2-.97,1.21-2.21,2.17-3.89,2.86-1.77.78-3.45,1.13-5.21,1.13-4.68,0-8.39-1.56-11.04-4.68-2.65-3.12-3.89-6.93-3.89-11.34s1.32-8.14,4.06-11.25c2.65-3.2,6.36-4.76,10.95-4.76,1.77,0,3.44.35,5.12.95,1.68.61,3,1.56,3.89,2.77.18-1.99,1.23-3.2,2.82-3.2,1.77,0,3.09,1.13,3.09,3.03v24.67c0,1.99-1.33,3.03-3.09,3.03m-5.21-23.28c-1.68-2.08-3.89-3.12-6.71-3.12s-5.04,1.04-6.71,3.12c-1.68,2.08-2.47,4.76-2.47,8.05s.88,5.97,2.47,8.05c1.68,2.08,3.89,3.03,6.71,3.03s5.03-1.04,6.71-3.03c1.68-2.08,2.56-4.76,2.56-8.05s-.88-5.97-2.56-8.05m-29.15,23.46c-1.68,0-2.83-1.3-2.83-3.03v-15.32c0-2.94-.44-5.02-1.41-6.32-.97-1.3-2.56-1.91-4.95-1.91-2.83,0-5.04,1.13-6.62,3.29-1.59,2.16-2.39,5.02-2.39,8.57v11.6c0,1.73-1.15,3.03-2.82,3.03-1.77.09-2.92-1.21-2.92-2.94v-37.14c0-1.73,1.15-3.03,2.83-3.03s2.83,1.3,2.83,3.03v13.59c.44-1.3,1.59-2.51,3.36-3.37,1.77-.95,3.62-1.47,5.65-1.47,8.04,0,12.1,3.98,12.1,11.86v16.54c0,1.73-1.15,3.03-2.83,3.03Zm-42.66-17.57c1.59.17,2.83.44,3.71.52.88.17,1.94.43,3.26.86,1.33.43,2.3.86,3.01,1.38,1.33,1.04,2.56,3.03,2.56,5.63,0,3.12-1.33,5.63-3.89,7.36-2.56,1.82-5.92,2.68-9.89,2.68-5.92-.26-10.24-2.08-13.16-5.54-.53-.69-.89-1.3-.89-1.99,0-1.56,1.06-2.86,2.83-2.86,1.06,0,1.94.43,2.65,1.39,2.03,2.59,4.86,3.98,8.48,3.98,5.3,0,7.95-1.65,7.95-4.85,0-1.3-.62-2.17-2.56-2.77-.98-.26-1.77-.52-2.48-.6-.62-.09-1.76-.26-3.27-.52-1.76-.26-3.26-.52-4.5-.78-1.23-.35-2.47-.78-3.8-1.39-2.65-1.21-3.98-3.46-3.98-6.58s1.24-5.46,3.62-7.1c2.48-1.65,5.39-2.51,8.84-2.51,5.3,0,9.19,1.73,11.66,5.11.44.52.62,1.12.62,1.82,0,1.64-1.24,2.77-3.09,2.77-.97,0-1.68-.43-2.21-1.3-1.51-2.34-3.8-3.46-6.98-3.46-4.24,0-6.71,1.56-6.71,4.42,0,2.51,3,3.55,8.22,4.33Z"/>
        <path class="cls-5" d="m515.16,252.89c-2.56,3.03-6.27,4.5-10.95,4.5-1.86,0-3.62-.35-5.3-1.04-1.68-.69-2.91-1.64-3.62-2.85v12.55c0,1.73-1.15,3.03-2.82,3.03s-2.83-1.3-2.83-3.03v-37.14c0-1.73,1.15-3.03,2.83-3.03,1.5,0,2.74,1.3,2.82,3.03.8-1.21,2.03-2.08,3.71-2.68,1.68-.6,3.44-.86,5.3-.86,4.68,0,8.3,1.38,10.87,4.24,2.65,2.85,3.89,6.75,3.89,11.77,0,4.67-1.33,8.48-3.89,11.51m-4.06-19.56c-1.59-2.08-3.89-3.03-6.71-3.03s-5.12.95-6.71,3.03c-1.59,1.99-2.3,4.67-2.3,8.14s.8,6.14,2.3,8.14c1.59,1.99,3.8,2.94,6.71,2.94s5.13-.95,6.71-2.94c1.59-1.99,2.3-4.68,2.3-8.14s-.8-6.15-2.3-8.14"/>
        <path class="cls-5" d="m550.5,252.98c-2.83,3.03-6.45,4.5-11.04,4.5s-8.22-1.47-11.04-4.5c-2.83-3.03-4.24-6.84-4.24-11.51s1.41-8.48,4.24-11.51c2.82-3.12,6.53-4.59,11.04-4.59s8.21,1.47,11.04,4.59c2.82,3.03,4.24,6.84,4.24,11.51s-1.41,8.48-4.24,11.51m-4.15-19.65c-1.68-2.08-4.06-3.03-6.89-3.03s-5.12.95-6.89,3.03c-1.76,1.99-2.65,4.67-2.65,8.14s.89,6.14,2.65,8.14c1.77,1.99,4.06,2.94,6.89,2.94s5.12-.95,6.89-2.94c1.77-1.99,2.65-4.76,2.65-8.14s-.88-6.15-2.65-8.14"/>
        <path class="cls-5" d="m560.3,252.12c-.53-.69-.88-1.3-.88-1.99,0-1.56,1.06-2.86,2.83-2.86,1.06,0,1.94.43,2.65,1.39,2.03,2.59,4.86,3.98,8.48,3.98,5.3,0,7.95-1.65,7.95-4.85,0-1.3-.62-2.17-2.56-2.77-.97-.26-1.77-.52-2.47-.6-.62-.09-1.77-.26-3.27-.52-1.77-.26-3.27-.51-4.51-.77-1.24-.35-2.47-.78-3.8-1.39-2.65-1.21-3.97-3.46-3.97-6.58s1.24-5.46,3.62-7.1c2.47-1.65,5.39-2.51,8.83-2.51,5.3,0,9.18,1.73,11.66,5.11.44.52.62,1.12.62,1.82,0,1.64-1.24,2.77-3.09,2.77-.97,0-1.68-.43-2.21-1.3-1.5-2.34-3.8-3.46-6.97-3.46-4.24,0-6.71,1.56-6.71,4.42,0,2.51,3,3.55,8.22,4.33,1.59.17,2.83.43,3.71.52.88.17,1.94.43,3.27.86,1.33.43,2.3.86,3,1.38,1.33,1.04,2.56,3.03,2.56,5.63,0,3.12-1.33,5.63-3.89,7.36-2.56,1.82-5.92,2.68-9.89,2.68-5.83-.26-10.16-2.08-13.16-5.54Z"/>
        <path class="cls-5" d="m600.75,216.11c0-1.73,1.15-3.03,2.83-3.03,1.77,0,2.83,1.3,2.83,3.03v9.87h11.57c2.03,0,3,.78,3,2.51s-.97,2.51-3,2.51h-11.57v16.1c0,3.72,2.03,5.45,4.94,5.45,2.03,0,3.62-.52,4.42-1.04l1.85-1.3c.53-.43,1.15-.61,1.68-.61,1.59,0,2.65,1.21,2.65,2.68,0,.95-.62,1.81-1.85,2.68-2.47,1.65-5.48,2.51-9.01,2.51-3.18,0-5.65-.78-7.6-2.34-1.94-1.56-2.83-4.06-2.83-7.45v-16.79h-8.3c-2.03,0-3.01-.78-3.01-2.51s.97-2.51,3.01-2.51h8.3v-9.78h.09Z"/>
        <path class="cls-4" d="m412.04,258.41c4.49,0,7.99-1.42,10.52-4.25,2.53-2.83,3.8-6.75,3.8-11.79,0-4.64-1.27-8.47-3.77-11.49-2.5-3.05-6.03-4.55-10.55-4.55-1.81,0-3.53.36-5.16,1.09-1.63.72-2.8,1.66-3.5,2.8v-12.6c0-1.72-1.11-3.05-2.77-3.05s-2.77,1.33-2.77,3.05v37.18c0,1.72,1.12,3.02,2.77,3.02,1.42,0,2.68-1.3,2.77-3.02.78,1.18,1.99,2.08,3.59,2.71,1.6.6,3.29.9,5.07.9m8.77-16.04c0,3.41-.75,6.12-2.26,8.14-1.51,1.99-3.65,2.98-6.45,2.98s-4.95-.99-6.45-2.98c-1.51-2.02-2.26-4.73-2.26-8.14s.75-6.18,2.26-8.14c1.51-1.99,3.65-2.98,6.45-2.98s4.94.99,6.45,2.98c1.51,1.96,2.26,4.67,2.26,8.14"/>
        <path class="cls-4" d="m437.76,270.77c3.23,0,5.82-1.09,7.78-3.29,1.96-2.17,4.07-5.7,6.3-10.62l11.73-25.81c.15-.51.24-.87.24-1.11,0-1.3-.6-2.23-1.78-2.78-.33-.15-.72-.24-1.18-.24-1.27,0-2.17.6-2.71,1.78l-9.08,20.84-9.14-20.84c-.54-1.18-1.45-1.78-2.71-1.78-.45,0-.85.09-1.18.24-1.18.51-1.78,1.45-1.78,2.78,0,.42.09.78.24,1.11l11.43,25.75-.33.75c-1.3,3.11-2.5,5.28-3.56,6.45-1.06,1.21-2.47,1.81-4.28,1.81-.96,0-2.17-.6-2.89-.6-1.33,0-2.35.93-2.35,2.41,0,2.08,1.75,3.14,5.25,3.14Z"/>
        <path class="cls-7" d="m130.07,203.49h-31.51c-1.03,0-1.87.83-1.87,1.87v27.96c0,1.03.83,1.87,1.87,1.87h20.41c.77,0,1.45-.47,1.74-1.18l11.1-27.96c.49-1.22-.42-2.55-1.73-2.55"/>
        <path class="cls-7" d="m238.44,203.49h-69.23l19.5-110.85c.2-1.14-.68-2.19-1.84-2.19h-27.92c-.9,0-1.68.65-1.84,1.54l-7.08,40.3h-38.95c-1.03,0-1.87.84-1.87,1.87v27.98c0,1.03.83,1.87,1.87,1.87h33.37l-18.38,104.58c-.2,1.14.68,2.19,1.84,2.19h27.9c.91,0,1.68-.65,1.84-1.54l5.98-34.04h39.77l-5.87,33.4c-.2,1.14.68,2.19,1.84,2.19h27.9c.91,0,1.68-.65,1.84-1.54l11.18-63.55c.2-1.14-.68-2.19-1.84-2.19"/>
        <path class="cls-7" d="m275.13,203.49h-21.46c-.77,0-1.45.47-1.73,1.18l-11.08,27.96c-.49,1.22.42,2.55,1.74,2.55h32.54c1.03,0,1.87-.84,1.87-1.87v-27.96c0-1.03-.84-1.87-1.87-1.87"/>
        <path class="cls-7" d="m287.66,132.29h-34.49l6.97-39.65c.2-1.14-.68-2.19-1.84-2.19h-27.9c-.91,0-1.68.65-1.84,1.54l-7.08,40.3h-26.76c-.77,0-1.45.47-1.74,1.18l-11.08,27.98c-.48,1.22.42,2.55,1.74,2.55h32.26l-4.57,26.01c-.17.98.45,1.92,1.42,2.14l26.81,6.22c1.04.24,2.08-.44,2.26-1.49l5.77-32.88h40.07c1.03,0,1.87-.84,1.87-1.87v-27.98c0-1.03-.84-1.87-1.87-1.87"/>
      </g>
    </g>
  </g>
</svg>