<?xml version="1.0" encoding="UTF-8" standalone="no"?>
<svg
   id="Layer_1"
   data-name="Layer 1"
   viewBox="0 0 500.01166 194.31563"
   version="1.1"
   sodipodi:docname="metalama-by-postsharp-logo-negative.svg"
   width="500.01166"
   height="194.31563"
   inkscape:version="1.2.2 (732a01da63, 2022-12-09)"
   xmlns:inkscape="http://www.inkscape.org/namespaces/inkscape"
   xmlns:sodipodi="http://sodipodi.sourceforge.net/DTD/sodipodi-0.dtd"
   xmlns="http://www.w3.org/2000/svg"
   xmlns:svg="http://www.w3.org/2000/svg">
   <style>
       :root {
        --fore-color: black; 
      }
      
      @media (prefers-color-scheme: dark) {
        :root {
          --fore-color: white; /* dark background color */
        }
      }
   </style>
  <sodipodi:namedview
     id="namedview113"
     pagecolor="#393939"
     bordercolor="#666666"
     borderopacity="1.0"
     inkscape:pageshadow="2"
     inkscape:pageopacity="0"
     inkscape:pagecheckerboard="true"
     showgrid="true"
     guidetolerance="10000"
     fit-margin-top="0"
     fit-margin-left="0"
     fit-margin-right="0"
     fit-margin-bottom="0"
     inkscape:zoom="3.0225"
     inkscape:cx="22.16708"
     inkscape:cy="201.15798"
     inkscape:window-width="3840"
     inkscape:window-height="2054"
     inkscape:window-x="3829"
     inkscape:window-y="-11"
     inkscape:window-maximized="1"
     inkscape:current-layer="Layer_1"
     inkscape:showpageshadow="0"
     inkscape:deskcolor="#515151">
    <inkscape:grid
       type="xygrid"
       id="grid195"
       originx="-0.88"
       originy="-0.56000001" />
  </sodipodi:namedview>
  <defs
     id="defs78">
    <style
       id="style76">.cls-1{fill:var(--fore-color);}.cls-2{fill:#973bfc;}.cls-3{fill:#fcee21;}</style>
  </defs>
  <path
     class="cls-1"
     d="m 131.59,53.41 a 3.68,3.68 0 0 0 0.11,0.65 l 0.18,-0.87 c -0.1,0.07 -0.29,0.15 -0.29,0.22 z"
     id="path80" />
  <path
     class="cls-1"
     d="m 141.15,89.14 a 3.45,3.45 0 1 1 6.87,0 v 0.85 a 7,7 0 0 1 2.49,-3.71 7.22,7.22 0 0 1 4.79,-1.6 q 7.06,0 8.68,5.39 a 7.59,7.59 0 0 1 2.86,-3.79 8.85,8.85 0 0 1 5.35,-1.6 c 6.38,0 9.58,3.94 9.58,10.32 v 24.73 a 3.43,3.43 0 1 1 -6.83,0 V 96.9 c 0,-4.35 -1.34,-6.17 -4.35,-6.17 -3.82,0 -5.71,3.42 -5.71,10.29 v 18.71 a 3.43,3.43 0 1 1 -6.83,0 V 96.9 c 0,-4.35 -1.19,-6.17 -4.35,-6.17 q -5.73,0 -5.68,11.18 v 17.82 a 3.45,3.45 0 1 1 -6.87,0 z"
     id="path82" />
  <path
     class="cls-1"
     d="m 224.31,112.19 a 3.58,3.58 0 0 0 -2.68,1.3 c -2.67,3.08 -6.45,4.64 -11.39,4.64 a 10.91,10.91 0 0 1 -8,-3.19 13.13,13.13 0 0 1 -3.75,-7.76 h 26.28 a 3.53,3.53 0 0 0 3.83,-3.82 18.41,18.41 0 0 0 -5.16,-13.33 17.46,17.46 0 0 0 -13.2,-5.35 c -5.76,0 -10.36,1.9 -13.77,5.65 a 22.14,22.14 0 0 0 0,28.25 c 3.41,3.75 8,5.6 13.77,5.6 6.72,0 12.14,-1.93 16.18,-5.83 a 3.51,3.51 0 0 0 0.3,-5 2.92,2.92 0 0 0 -2.41,-1.16 z M 202.4,93.74 a 11,11 0 0 1 7.84,-3 9.59,9.59 0 0 1 7.31,2.9 16.35,16.35 0 0 1 3.94,7.46 h -23 a 12.85,12.85 0 0 1 3.91,-7.36 z"
     id="path84" />
  <path
     class="cls-1"
     d="m 249.74,69.46 c 2.12,0 3.42,1.56 3.42,3.79 v 12.18 h 13.77 c 2.37,0 3.56,1 3.56,3 0,2 -1.19,3 -3.56,3 h -13.77 v 19.9 c 0,4.64 2.45,6.72 5.86,6.72 a 10.09,10.09 0 0 0 5.27,-1.26 l 2.19,-1.56 a 3.84,3.84 0 0 1 2,-0.78 3.09,3.09 0 0 1 3.12,3.27 c 0,1.15 -0.74,2.26 -2.19,3.3 a 17.81,17.81 0 0 1 -10.73,3.08 c -3.75,0 -6.75,-1 -9,-2.93 -2.25,-1.93 -3.37,-5 -3.37,-9.21 V 91.51 h -9.88 c -2.38,0 -3.56,-1 -3.56,-3 0,-2 1.18,-3 3.56,-3 h 9.88 V 73.25 a 3.5,3.5 0 0 1 3.43,-3.79 z"
     id="path86" />
  <path
     class="cls-1"
     d="m 311.74,85.43 c -1.89,0 -3.23,1.52 -3.41,3.93 a 10.32,10.32 0 0 0 -4.64,-3.45 15.55,15.55 0 0 0 -6.05,-1.23 c -5.5,0 -9.84,1.93 -13,5.83 a 21.1,21.1 0 0 0 -4.79,13.92 21.59,21.59 0 0 0 4.68,14 c 3.15,3.82 7.53,5.75 13.14,5.75 a 16.26,16.26 0 0 0 6.05,-1.19 10.54,10.54 0 0 0 4.64,-3.49 c 0.18,2.42 1.48,3.94 3.41,3.94 a 3.5,3.5 0 0 0 3.68,-3.79 V 89.21 a 3.5,3.5 0 0 0 -3.71,-3.78 z m -6.2,28.91 a 10.21,10.21 0 0 1 -15.88,0 15.79,15.79 0 0 1 -3,-9.91 15.61,15.61 0 0 1 3,-9.87 10.15,10.15 0 0 1 15.88,0 15.39,15.39 0 0 1 3,9.87 15.56,15.56 0 0 1 -3,9.91 z"
     id="path88" />
  <path
     class="cls-2"
     d="M 340.77,117.35 V 76.29 h -8.5 c -2.12,0 -3.75,-1.11 -3.75,-3 0,-1.89 1.63,-3 3.75,-3 h 11.91 a 3.23,3.23 0 0 1 3.42,3 v 44.1 h 11 c 2.12,0 3.75,1.12 3.75,3.05 0,1.93 -1.63,3 -3.75,3 h -28.86 c -2.11,0 -3.71,-1.11 -3.71,-3 0,-1.89 1.6,-3.05 3.71,-3.05 z"
     id="path90" />
  <path
     class="cls-2"
     d="m 398.05,85.43 c -1.89,0 -3.23,1.52 -3.41,3.93 A 10.37,10.37 0 0 0 390,85.91 15.55,15.55 0 0 0 384,84.68 c -5.5,0 -9.84,1.93 -13,5.83 a 21.1,21.1 0 0 0 -4.79,13.92 21.59,21.59 0 0 0 4.68,14 c 3.15,3.82 7.53,5.75 13.14,5.75 a 16.26,16.26 0 0 0 6.05,-1.19 10.59,10.59 0 0 0 4.64,-3.49 c 0.18,2.42 1.48,3.94 3.41,3.94 a 3.5,3.5 0 0 0 3.68,-3.79 V 89.21 a 3.5,3.5 0 0 0 -3.76,-3.78 z m -6.2,28.91 a 10.21,10.21 0 0 1 -15.88,0 15.79,15.79 0 0 1 -3,-9.91 15.61,15.61 0 0 1 3,-9.87 10.15,10.15 0 0 1 15.88,0 15.39,15.39 0 0 1 3,9.87 15.56,15.56 0 0 1 -3,9.91 z"
     id="path92" />
  <path
     class="cls-2"
     d="m 413.67,89.14 a 3.45,3.45 0 1 1 6.87,0 v 0.85 a 6.88,6.88 0 0 1 2.46,-3.71 7.24,7.24 0 0 1 4.79,-1.6 q 7.08,0 8.69,5.39 a 7.48,7.48 0 0 1 2.86,-3.79 8.8,8.8 0 0 1 5.34,-1.6 c 6.39,0 9.58,3.94 9.58,10.32 v 24.73 a 3.43,3.43 0 1 1 -6.83,0 V 96.9 c 0,-4.35 -1.34,-6.17 -4.34,-6.17 -3.83,0 -5.72,3.42 -5.72,10.29 v 18.71 a 3.43,3.43 0 1 1 -6.83,0 V 96.9 c 0,-4.35 -1.19,-6.17 -4.35,-6.17 q -5.73,0 -5.67,11.18 v 17.82 a 3.45,3.45 0 1 1 -6.87,0 z"
     id="path94" />
  <path
     class="cls-2"
     d="m 496.32,85.43 c -1.89,0 -3.22,1.52 -3.41,3.93 a 10.26,10.26 0 0 0 -4.64,-3.45 15.55,15.55 0 0 0 -6,-1.23 c -5.5,0 -9.84,1.93 -13,5.83 a 21.15,21.15 0 0 0 -4.79,13.92 21.59,21.59 0 0 0 4.68,14 c 3.15,3.82 7.53,5.75 13.14,5.75 a 16.26,16.26 0 0 0 6,-1.19 10.48,10.48 0 0 0 4.64,-3.49 c 0.19,2.42 1.48,3.94 3.41,3.94 A 3.5,3.5 0 0 0 500,119.68 V 89.21 a 3.5,3.5 0 0 0 -3.68,-3.78 z m -6.19,28.91 a 10.22,10.22 0 0 1 -15.89,0 15.79,15.79 0 0 1 -3,-9.91 15.61,15.61 0 0 1 3,-9.87 10.16,10.16 0 0 1 15.89,0 15.44,15.44 0 0 1 3,9.87 15.62,15.62 0 0 1 -3,9.91 z"
     id="path96" />
  <polygon
     class="cls-1"
     points="112.53,168.47 104.58,168.47 104.37,168.47 95.48,168.47 95.19,168.47 87.31,168.47 86.09,168.47 78.14,168.47 77.93,168.47 68.75,168.47 68.75,177.86 77.93,177.86 78.14,177.86 86.09,177.86 87.31,177.86 95.19,177.86 95.48,177.86 104.37,177.86 104.58,177.86 112.53,177.86 113.75,177.86 121.78,177.86 121.92,177.86 130.95,177.86 131.17,177.86 139.12,177.86 140.34,177.86 148.51,177.86 148.51,168.47 140.34,168.47 139.12,168.47 131.17,168.47 130.95,168.47 121.92,168.47 121.78,168.47 113.75,168.47 "
     id="polygon98"
     transform="translate(-50,-75.32)" />
  <polygon
     class="cls-1"
     points="130.95,159.15 131.17,159.15 139.12,159.15 140.34,159.15 148.51,159.15 148.51,149.76 140.34,149.76 139.12,149.76 131.17,149.76 130.95,149.76 121.78,149.76 121.78,159.15 "
     id="polygon100"
     transform="translate(-50,-75.32)" />
  <polygon
     class="cls-1"
     points="112.53,187.21 104.58,187.21 104.37,187.21 95.48,187.21 95.19,187.21 87.31,187.21 86.09,187.21 78.14,187.21 77.93,187.21 68.75,187.21 68.75,196.59 77.93,196.59 78.14,196.59 86.09,196.59 87.31,196.59 95.19,196.59 95.48,196.59 104.37,196.59 104.58,196.59 112.53,196.59 113.75,196.59 121.78,196.59 121.92,196.59 130.95,196.59 131.17,196.59 139.12,196.59 140.34,196.59 148.51,196.59 148.51,187.21 140.34,187.21 139.12,187.21 131.17,187.21 130.95,187.21 121.92,187.21 121.78,187.21 113.75,187.21 "
     id="polygon102"
     transform="translate(-50,-75.32)" />
  <polygon
     class="cls-2"
     points="140.34,112.37 139.12,112.37 131.17,112.37 131.17,103.34 131.17,103.06 131.17,94.03 140.48,94.03 140.48,84.71 140.48,84.64 140.48,75.32 131.09,75.32 131.09,84.64 121.78,84.64 121.78,93.95 121.78,94.03 121.78,103.06 121.78,103.34 121.78,112.37 121.78,112.44 121.78,121.76 121.78,131.07 121.78,131.14 121.78,140.39 121.78,140.46 121.78,149.78 130.95,149.78 131.17,149.78 139.12,149.78 140.34,149.78 148.51,149.78 148.51,140.46 148.51,140.39 148.51,131.14 148.51,131.07 148.51,121.76 157.89,121.76 167.28,121.76 167.28,112.44 167.28,112.37 167.28,103.06 157.89,103.06 157.89,93.95 148.51,93.95 148.51,103.06 148.51,103.34 148.51,112.37 "
     id="polygon104"
     transform="translate(-50,-75.32)"
     style="fill:#973bfc;fill-opacity:1" />
  <polygon
     class="cls-2"
     points="112.53,159.09 104.58,159.09 104.37,159.09 95.48,159.09 95.19,159.09 87.31,159.09 86.09,159.09 78.14,159.09 77.93,159.09 68.75,159.09 68.75,168.47 59.39,168.47 59.39,177.83 50,177.83 50,187.21 50,187.22 50,195.31 50,196.59 50,204.7 59.39,204.7 59.39,196.59 59.39,195.31 59.39,187.22 59.39,187.21 59.39,177.86 68.75,177.86 68.75,187.22 77.93,187.22 78.14,187.22 86.09,187.22 87.31,187.22 95.19,187.22 95.48,187.22 104.37,187.22 104.58,187.22 112.53,187.22 113.75,187.22 121.78,187.22 121.92,187.22 130.95,187.22 131.17,187.22 139.12,187.22 140.34,187.22 148.51,187.22 148.51,177.83 140.34,177.83 139.12,177.83 131.17,177.83 130.95,177.83 121.92,177.83 121.78,177.83 113.75,177.83 112.53,177.83 104.58,177.83 104.37,177.83 95.48,177.83 95.19,177.83 87.31,177.83 86.09,177.83 78.14,177.83 77.93,177.83 68.77,177.83 68.77,168.48 77.93,168.48 78.14,168.48 86.09,168.48 87.31,168.48 95.19,168.48 95.48,168.48 104.37,168.48 104.58,168.48 112.53,168.48 113.75,168.48 121.78,168.48 121.92,168.48 130.95,168.48 131.17,168.48 139.12,168.48 140.34,168.48 148.51,168.48 148.51,159.09 140.34,159.09 139.12,159.09 131.17,159.09 130.95,159.09 121.92,159.09 121.78,159.09 113.75,159.09 "
     id="polygon106"
     transform="translate(-50,-75.32)" />
  <polygon
     class="cls-2"
     points="112.53,196.61 104.58,196.61 104.37,196.61 95.48,196.61 95.19,196.61 87.31,196.61 86.09,196.61 78.14,196.61 77.93,196.61 68.75,196.61 68.75,205.97 68.75,206 68.75,215.29 68.75,215.36 68.75,224.68 76.92,224.68 78.14,224.68 86.31,224.68 86.31,215.36 86.31,215.29 86.31,206 87.31,206 95.19,206 95.48,206 104.37,206 104.58,206 112.53,206 113.75,206 121.78,206 121.92,206 130.95,206 130.95,215.29 130.95,215.36 130.95,224.68 139.12,224.68 140.34,224.68 148.51,224.68 148.51,215.36 148.51,215.29 148.51,206 148.51,205.97 148.51,196.61 140.34,196.61 139.12,196.61 131.17,196.61 130.95,196.61 121.92,196.61 121.78,196.61 113.75,196.61 "
     id="polygon108"
     transform="translate(-50,-75.32)" />
  <rect
     class="cls-3"
     x="-90.479996"
     y="-28.020002"
     width="9.3199997"
     height="9.3900003"
     transform="scale(-1)"
     id="rect110" />
  <path
     d="m 495.33539,180.16097 c -2.02664,2.39819 -4.96316,3.56562 -8.67022,3.56562 -1.46931,0 -2.86685,-0.27655 -4.19683,-0.82543 -1.32787,-0.54677 -2.30741,-1.30043 -2.86685,-2.26097 v 9.93898 c 0,1.36798 -0.90777,2.39819 -2.23775,2.39819 -1.32787,0 -2.23775,-1.03021 -2.23775,-2.39819 v -29.40106 c 0,-1.37009 0.90988,-2.39819 2.23775,-2.39819 1.18854,0 2.16808,1.0281 2.23775,2.39819 0.63121,-0.96054 1.60864,-1.64453 2.93652,-2.12375 1.32998,-0.47921 2.72751,-0.6861 4.19683,-0.6861 3.70706,0 6.57391,1.09565 8.60055,3.35873 2.02875,2.26097 3.07796,5.34527 3.07796,9.32044 0,3.70072 -1.04921,6.71535 -3.07796,9.11354 z m -3.21518,-15.55657 c -1.26032,-1.57487 -3.00829,-2.4003 -5.31571,-2.4003 -2.30741,0 -4.05539,0.75366 -5.3157,2.4003 -1.2561,1.57698 -1.81765,3.70073 -1.81765,6.44303 0,2.74018 0.63122,4.86604 1.81765,6.44091 1.26031,1.57698 3.00829,2.33064 5.3157,2.33064 2.30742,0 4.05539,-0.75366 5.31571,-2.33064 1.18854,-1.57487 1.81764,-3.70073 1.81764,-6.44091 0,-2.67263 -0.6291,-4.86605 -1.81764,-6.44303 z m -23.07836,1.85142 c -0.8381,0 -1.53687,-0.48133 -1.95697,-1.37009 -0.90988,-1.85142 -2.44675,-2.80985 -4.4755,-2.80985 -2.51641,0 -4.40583,0.95843 -5.66403,2.80985 -1.25821,1.84931 -1.88942,4.17783 -1.88942,6.92013 v 8.77155 c 0,1.43976 -0.90777,2.46785 -2.23775,2.46785 -1.32787,0 -2.23564,-1.02809 -2.23564,-2.46785 v -19.46208 c 0,-1.43976 0.90777,-2.46785 2.23564,-2.46785 1.32998,0 2.23775,1.02809 2.23775,2.46785 v 1.09566 c 0.6291,-1.0281 1.60864,-1.98653 3.00829,-2.80774 1.39754,-0.82333 2.93652,-1.23499 4.54516,-1.23499 4.19472,0 7.06157,1.50731 8.67022,4.59161 0.21111,0.41166 0.28077,0.75365 0.28077,1.16532 0,1.37009 -1.2582,2.33063 -2.51852,2.33063 z m -27.90218,16.65222 c -1.25821,0 -2.16597,-0.96054 -2.23564,-2.53541 -0.77054,0.95843 -1.75009,1.7142 -3.07796,2.26097 -1.39754,0.61644 -2.72752,0.89299 -4.12505,0.89299 -3.70707,0 -6.64358,-1.23498 -8.742,-3.70284 -2.0963,-2.46574 -3.07585,-5.48248 -3.07585,-8.97632 0,-3.49596 1.04921,-6.44303 3.21729,-8.90877 2.09631,-2.53541 5.03283,-3.7704 8.67022,-3.7704 1.39754,0 2.72541,0.27444 4.05539,0.75366 1.32787,0.48133 2.37708,1.23498 3.07796,2.19341 0.13933,-1.57486 0.97743,-2.53541 2.23564,-2.53541 1.39965,0 2.44885,0.89088 2.44885,2.39819 v 19.53174 c 0,1.57698 -1.0492,2.39819 -2.44885,2.39819 z m -4.12295,-18.43397 c -1.32998,-1.64454 -3.07796,-2.46997 -5.3157,-2.46997 -2.23775,0 -3.98573,0.82543 -5.31571,2.46997 -1.32787,1.64453 -1.95698,3.76828 -1.95698,6.37336 0,2.60296 0.69877,4.72671 1.95698,6.37336 1.32998,1.64453 3.07796,2.39819 5.31571,2.39819 2.23774,0 3.98572,-0.82333 5.3157,-2.39819 1.32787,-1.64665 2.02664,-3.7704 2.02664,-6.37336 0,-2.60508 -0.69877,-4.72883 -2.02664,-6.37336 z m -23.07836,18.57119 c -1.32787,0 -2.23774,-1.02809 -2.23774,-2.39819 v -12.13028 c 0,-2.33064 -0.35044,-3.97517 -1.11888,-5.00327 -0.76843,-1.02809 -2.02664,-1.50942 -3.91606,-1.50942 -2.23775,0 -3.98572,0.89299 -5.24393,2.60719 -1.2582,1.71209 -1.88942,3.97306 -1.88942,6.78291 v 9.18321 c 0,1.37009 -0.90776,2.39819 -2.23563,2.39819 -1.39965,0.0697 -2.30953,-0.95843 -2.30953,-2.32853 v -29.39894 c 0,-1.3722 0.90988,-2.4003 2.23775,-2.4003 1.32787,0 2.23775,1.0281 2.23775,2.4003 v 10.75597 c 0.35044,-1.02599 1.26031,-1.98653 2.65785,-2.67052 1.39965,-0.75366 2.86685,-1.16532 4.4755,-1.16532 6.3628,0 9.58009,3.15396 9.58009,9.38799 v 13.09082 c 0,1.3701 -0.90988,2.39819 -2.23775,2.39819 z m -33.77521,-13.91203 c 1.2582,0.13722 2.23774,0.3441 2.93651,0.41166 0.69877,0.13722 1.53898,0.3441 2.58608,0.6861 1.04921,0.342 1.81975,0.68399 2.37919,1.09354 1.04921,0.82332 2.02875,2.4003 2.02875,4.4565 0,2.46785 -1.04921,4.45438 -3.07796,5.82448 -2.02875,1.43975 -4.68449,2.12374 -7.83212,2.12374 -4.68449,-0.20266 -8.11078,-1.64242 -10.41819,-4.38471 -0.42011,-0.54889 -0.70088,-1.0281 -0.70088,-1.57487 0,-1.23499 0.84021,-2.26308 2.23775,-2.26308 0.84021,0 1.53898,0.34199 2.09841,1.09776 1.60865,2.05408 3.8464,3.15185 6.71325,3.15185 4.19472,0 6.29314,-1.30254 6.29314,-3.83795 0,-1.0281 -0.48978,-1.7142 -2.02664,-2.19342 -0.77055,-0.20477 -1.39965,-0.41166 -1.95909,-0.47921 -0.48977,-0.0676 -1.39754,-0.20689 -2.58819,-0.41166 -1.39753,-0.20478 -2.58607,-0.40955 -3.56562,-0.61644 -0.97743,-0.27444 -1.95697,-0.61644 -3.00618,-1.09776 -2.09841,-0.95844 -3.14762,-2.74019 -3.14762,-5.20593 0,-2.46786 0.97954,-4.31928 2.86685,-5.62182 1.95908,-1.30254 4.2665,-1.98653 6.99402,-1.98653 4.19472,0 7.27268,1.37009 9.22965,4.04484 0.35044,0.40955 0.48977,0.88876 0.48977,1.43764 0,1.30254 -0.97954,2.19342 -2.44674,2.19342 -0.77055,0 -1.32999,-0.342 -1.74798,-1.0281 -1.19065,-1.84931 -3.00829,-2.74229 -5.5247,-2.74229 -3.35663,0 -5.31571,1.23498 -5.31571,3.49595 0,1.98653 2.37919,2.80985 6.50425,3.42629 z"
     class="cls-1"
     id="path280-6"
     style="fill:#a0a0a0;fill-opacity:1;fill-rule:evenodd;stroke-width:2.11108" />
  <path
     d="m 279.11616,180.16097 c -2.02875,2.39819 -4.96527,3.56562 -8.67233,3.56562 -1.46932,0 -2.86685,-0.27655 -4.19472,-0.82543 -1.32999,-0.54677 -2.30742,-1.30043 -2.86897,-2.26097 v 9.93898 c 0,1.36798 -0.90776,2.39819 -2.23563,2.39819 -1.32998,0 -2.23775,-1.03021 -2.23775,-2.39819 v -29.40106 c 0,-1.37009 0.90777,-2.39819 2.23775,-2.39819 1.18854,0 2.16597,1.0281 2.23563,2.39819 0.63122,-0.96054 1.60865,-1.64453 2.93863,-2.12375 1.32787,-0.47921 2.72752,-0.6861 4.19472,-0.6861 3.70707,0 6.57392,1.09565 8.60267,3.35873 2.09841,2.26097 3.07585,5.34527 3.07585,9.32044 0,3.70072 -1.04921,6.71535 -3.07585,9.11354 z m -3.21729,-15.4869 c -1.25821,-1.64454 -3.07585,-2.39819 -5.31571,-2.39819 -2.30741,0 -4.05539,0.75365 -5.3136,2.39819 -1.2582,1.57486 -1.81764,3.70073 -1.81764,6.44091 0,2.74019 0.6291,4.86605 1.81764,6.44303 1.25821,1.57486 3.00619,2.32852 5.3136,2.32852 2.30952,0 4.0575,-0.75366 5.31571,-2.32852 1.2582,-1.57698 1.81764,-3.70284 1.81764,-6.44303 0,-2.67263 -0.6291,-4.86605 -1.81764,-6.44091 z"
     class="cls-2"
     id="path282-3"
     style="fill:#a0a0a0;fill-opacity:1;fill-rule:evenodd;stroke-width:2.11108" />
  <path
     d="m 307.08801,180.23064 c -2.23986,2.39608 -5.10671,3.56351 -8.742,3.56351 -3.63528,0 -6.50424,-1.16743 -8.73988,-3.56351 -2.23986,-2.4003 -3.35873,-5.41493 -3.35873,-9.11566 0,-3.70073 1.11887,-6.71535 3.35873,-9.11566 2.23564,-2.46574 5.17426,-3.63106 8.73988,-3.63106 3.63529,0 6.50214,1.16532 8.742,3.63106 2.23563,2.40031 3.35451,5.41493 3.35451,9.11566 0,3.70073 -1.11888,6.71536 -3.35451,9.11566 z m -3.28696,-15.55657 c -1.32787,-1.64454 -3.21729,-2.39819 -5.45504,-2.39819 -2.23775,0 -4.05539,0.75365 -5.45504,2.39819 -1.39753,1.57486 -2.09841,3.70073 -2.09841,6.44091 0,2.74019 0.70088,4.86605 2.09841,6.44303 1.39965,1.57486 3.21729,2.32852 5.45504,2.32852 2.23775,0 4.05539,-0.75366 5.45504,-2.32852 1.39754,-1.57698 2.09631,-3.7704 2.09631,-6.44303 0,-2.67263 -0.69877,-4.86605 -2.09631,-6.44091 z"
     class="cls-2"
     id="path284-9"
     style="fill:#a0a0a0;fill-opacity:1;fill-rule:evenodd;stroke-width:2.11108" />
  <path
     d="m 314.84835,179.54454 c -0.418,-0.54889 -0.69877,-1.0281 -0.69877,-1.57487 0,-1.23499 0.8381,-2.26308 2.23775,-2.26308 0.84021,0 1.53898,0.34199 2.09841,1.09776 1.60865,2.05408 3.8464,3.15185 6.71325,3.15185 4.19472,0 6.29314,-1.30254 6.29314,-3.83795 0,-1.0281 -0.48977,-1.7142 -2.02875,-2.19342 -0.76844,-0.20477 -1.39754,-0.41166 -1.95698,-0.47921 -0.48977,-0.0676 -1.39965,-0.20689 -2.58819,-0.41378 -1.39753,-0.20266 -2.58607,-0.40743 -3.56561,-0.61432 -0.97955,-0.27444 -1.95909,-0.61644 -3.0083,-1.09776 -2.0963,-0.95844 -3.14551,-2.74019 -3.14551,-5.20593 0,-2.46786 0.97954,-4.31928 2.86685,-5.62182 1.95908,-1.30254 4.2665,-1.98653 6.99402,-1.98653 4.19472,0 7.27057,1.37009 9.22965,4.04484 0.35044,0.40955 0.48977,0.88876 0.48977,1.43764 0,1.30254 -0.97954,2.19342 -2.44885,2.19342 -0.76844,0 -1.32787,-0.342 -1.74798,-1.0281 -1.18854,-1.84931 -3.00618,-2.74229 -5.52259,-2.74229 -3.35663,0 -5.31571,1.23498 -5.31571,3.49595 0,1.98653 2.37708,2.80985 6.50425,3.42629 1.2582,0.13722 2.23774,0.3441 2.93651,0.41166 0.69877,0.13722 1.53898,0.3441 2.58608,0.6861 1.05132,0.342 1.81975,0.68399 2.37919,1.09354 1.04921,0.82332 2.02664,2.4003 2.02664,4.4565 0,2.46785 -1.04921,4.45438 -3.07585,5.82448 -2.02875,1.43975 -4.68449,2.12374 -7.83212,2.12374 -4.61482,-0.20266 -8.04111,-1.64453 -10.4203,-4.38471 z"
     class="cls-2"
     id="path286-6"
     style="fill:#a0a0a0;fill-opacity:1;fill-rule:evenodd;stroke-width:2.11108" />
  <path
     d="m 346.87559,151.03647 c 0,-1.37009 0.90988,-2.39819 2.23775,-2.39819 1.39964,0 2.23986,1.0281 2.23986,2.39819 v 7.81101 h 9.15999 c 1.60864,0 2.37707,0.61643 2.37707,1.98864 0,1.30254 -0.76843,1.98653 -2.37707,1.98653 h -9.15999 v 12.74672 c 0,2.94707 1.60653,4.31716 3.91394,4.31716 1.60865,0 2.86685,-0.40955 3.49807,-0.82121 l 1.4672,-1.0281 c 0.42011,-0.34199 0.90988,-0.47921 1.32998,-0.47921 1.25821,0 2.09631,0.95843 2.09631,2.12375 0,0.75365 -0.48766,1.43764 -1.4672,2.12375 -1.95909,1.30253 -4.33617,1.98864 -7.13335,1.98864 -2.51641,0 -4.4755,-0.61855 -6.01448,-1.85142 -1.53687,-1.23288 -2.23775,-3.21941 -2.23775,-5.89415 v -13.29349 h -6.5718 c -1.60864,0 -2.37919,-0.61855 -2.37919,-1.98653 0,-1.30465 0.77055,-1.98864 2.37919,-1.98864 h 6.5718 v -7.74345 z"
     class="cls-2"
     id="path288-2"
     style="fill:#a0a0a0;fill-opacity:1;fill-rule:evenodd;stroke-width:2.11108" />
  <g
     aria-label="by"
     id="text502"
     style="font-size:48.8878px;font-family:Monosten;-inkscape-font-specification:Monosten;fill:#a0a0a0;stroke-width:0.509248;fill-opacity:1">
    <path
       d="m 197.47794,184.52852 c 3.55678,0 6.32581,-1.12194 8.33098,-3.36581 2.00516,-2.24387 3.00774,-5.3471 3.00774,-9.33356 0,-3.67613 -1.00258,-6.70775 -2.98387,-9.09485 -1.98129,-2.41097 -4.7742,-3.60452 -8.35485,-3.60452 -1.43226,0 -2.79291,0.28645 -4.08194,0.85936 -1.28903,0.5729 -2.22,1.3129 -2.76904,2.22 v -9.97808 c 0,-1.36064 -0.88322,-2.41097 -2.19613,-2.41097 -1.3129,0 -2.19613,1.05033 -2.19613,2.41097 V 181.664 c 0,1.36065 0.88323,2.3871 2.19613,2.3871 1.12194,0 2.12452,-1.02645 2.19613,-2.3871 0.62065,0.93097 1.57549,1.6471 2.84065,2.14839 1.26517,0.47742 2.60194,0.71613 4.01033,0.71613 z m 6.94646,-12.69937 c 0,2.69742 -0.59677,4.84581 -1.79032,6.44517 -1.19355,1.57549 -2.88839,2.36323 -5.1084,2.36323 -2.22,0 -3.91484,-0.78774 -5.10839,-2.36323 -1.19355,-1.59936 -1.79033,-3.74775 -1.79033,-6.44517 0,-2.74516 0.59678,-4.89355 1.79033,-6.44517 1.19355,-1.57548 2.88839,-2.36323 5.10839,-2.36323 2.22001,0 3.91485,0.78775 5.1084,2.36323 1.19355,1.55162 1.79032,3.70001 1.79032,6.44517 z"
       id="path6398"
       style="fill:#a0a0a0;fill-opacity:1" />
    <path
       d="m 217.8399,194.31563 c 2.5542,0 4.6071,-0.85936 6.15872,-2.60194 1.55161,-1.71871 3.22258,-4.51162 4.98903,-8.40259 l 9.28582,-20.43357 c 0.11936,-0.40581 0.19097,-0.69226 0.19097,-0.88323 0,-1.02645 -0.47742,-1.76645 -1.40839,-2.19613 -0.26258,-0.11935 -0.5729,-0.19097 -0.93097,-0.19097 -1.00258,0 -1.71871,0.47742 -2.14839,1.40839 l -7.18517,16.49486 -7.23291,-16.49486 c -0.42968,-0.93097 -1.14581,-1.40839 -2.14839,-1.40839 -0.35806,0 -0.66839,0.0716 -0.93097,0.19097 -0.93097,0.40581 -1.40839,1.14581 -1.40839,2.19613 0,0.3342 0.0716,0.62065 0.19097,0.88323 l 9.04711,20.38583 -0.26258,0.59677 c -1.02645,2.45872 -1.98129,4.17743 -2.81678,5.1084 -0.83548,0.95484 -1.95742,1.43226 -3.38968,1.43226 -0.76387,0 -1.71871,-0.47742 -2.29162,-0.47742 -1.05032,0 -1.86193,0.74 -1.86193,1.90968 0,1.64709 1.38451,2.48258 4.15355,2.48258 z"
       id="path6400"
       style="fill:#a0a0a0;fill-opacity:1" />
  </g>
</svg>
